<?xml version="1.0" encoding="UTF-8" standalone="no"?>
<svg width="24px" height="19px" viewBox="0 0 24 19" version="1.1" xmlns="http://www.w3.org/2000/svg" xmlns:xlink="http://www.w3.org/1999/xlink">
    <!-- Generator: Sketch 3.7.2 (28276) - http://www.bohemiancoding.com/sketch -->
    <title>Group</title>
    <desc>Created with Sketch.</desc>
    <defs></defs>
    <g id="-" stroke="none" stroke-width="1" fill="none" fill-rule="evenodd" stroke-linecap="round" stroke-linejoin="round">
        <g id="STEP-1---STAFF" transform="translate(-1177.000000, -567.000000)" stroke="#9B9B9B">
            <g id="Group" transform="translate(1177.000000, 567.000000)">
                <path d="M23.5,16.5 C23.5,17.604 22.605,18.5 21.5,18.5 L2.5,18.5 C1.396,18.5 0.5,17.604 0.5,16.5 L0.5,2.5 C0.5,1.396 1.396,0.5 2.5,0.5 L21.5,0.5 C22.605,0.5 23.5,1.396 23.5,2.5 L23.5,16.5 L23.5,16.5 Z" id="Stroke-100"></path>
                <path d="M0.5,5.5 L23.5,5.5" id="Stroke-101"></path>
                <path d="M4.5,3 C4.5,3.276 4.276,3.5 4,3.5 C3.724,3.5 3.5,3.276 3.5,3 C3.5,2.724 3.724,2.5 4,2.5 C4.276,2.5 4.5,2.724 4.5,3 L4.5,3 Z" id="Stroke-102"></path>
                <path d="M7.5,3 C7.5,3.276 7.276,3.5 7,3.5 C6.724,3.5 6.5,3.276 6.5,3 C6.5,2.724 6.724,2.5 7,2.5 C7.276,2.5 7.5,2.724 7.5,3 L7.5,3 Z" id="Stroke-103"></path>
                <path d="M10.5,3 C10.5,3.276 10.276,3.5 10,3.5 C9.724,3.5 9.5,3.276 9.5,3 C9.5,2.724 9.724,2.5 10,2.5 C10.276,2.5 10.5,2.724 10.5,3 L10.5,3 Z" id="Stroke-104"></path>
                <polygon id="Stroke-105" points="4.5 9.5 3.5 9.5 3.5 8.5 4.5 8.5"></polygon>
                <polygon id="Stroke-106" points="4.5 12.5 3.5 12.5 3.5 11.5 4.5 11.5"></polygon>
                <polygon id="Stroke-107" points="4.5 15.5 3.5 15.5 3.5 14.5 4.5 14.5"></polygon>
                <polygon id="Stroke-108" points="8.5 9.5 7.5 9.5 7.5 8.5 8.5 8.5"></polygon>
                <polygon id="Stroke-109" points="8.5 12.5 7.5 12.5 7.5 11.5 8.5 11.5"></polygon>
                <polygon id="Stroke-110" points="8.5 15.5 7.5 15.5 7.5 14.5 8.5 14.5"></polygon>
                <polygon id="Stroke-111" points="12.5 9.5 11.5 9.5 11.5 8.5 12.5 8.5"></polygon>
                <polygon id="Stroke-112" points="12.5 12.5 11.5 12.5 11.5 11.5 12.5 11.5"></polygon>
                <polygon id="Stroke-113" points="12.5 15.5 11.5 15.5 11.5 14.5 12.5 14.5"></polygon>
                <polygon id="Stroke-114" points="16.5 9.5 15.5 9.5 15.5 8.5 16.5 8.5"></polygon>
                <polygon id="Stroke-115" points="16.5 12.5 15.5 12.5 15.5 11.5 16.5 11.5"></polygon>
                <polygon id="Stroke-116" points="16.5 15.5 15.5 15.5 15.5 14.5 16.5 14.5"></polygon>
                <polygon id="Stroke-117" points="20.5 9.5 19.5 9.5 19.5 8.5 20.5 8.5"></polygon>
                <polygon id="Stroke-118" points="20.5 12.5 19.5 12.5 19.5 11.5 20.5 11.5"></polygon>
                <polygon id="Stroke-119" points="20.5 15.5 19.5 15.5 19.5 14.5 20.5 14.5"></polygon>
            </g>
        </g>
    </g>
</svg>